<svg width="64" height="64" viewBox="0 0 64 64" fill="none" xmlns="http://www.w3.org/2000/svg">
<path d="M55.8499 27.1305C55.6992 26.8424 55.4007 26.6617 55.0754 26.662H8.92641C8.60129 26.662 8.30316 26.8425 8.15241 27.1305L2.37891 38.123C2.15416 38.5507 2.31866 39.0797 2.74654 39.3046C2.87204 39.3706 3.01166 39.405 3.15341 39.405H8.05341V58.705C8.05366 59.1881 8.44529 59.5797 8.92841 59.58H55.0749C55.5582 59.58 55.9499 59.1882 55.9499 58.705V39.405H60.8499C61.3332 39.405 61.7249 39.0131 61.7248 38.5299C61.7248 38.3881 61.6903 38.2485 61.6244 38.123L55.8499 27.1305ZM9.45541 28.412H30.5499L25.6999 37.655H4.59991L9.45541 28.412ZM9.79991 39.405H26.2249C26.5503 39.405 26.8488 39.2246 26.9999 38.9365L31.1239 31.0865V57.833H9.79991V39.405ZM54.1999 57.8315H32.8749V31.085L36.9999 38.9365C37.1508 39.2246 37.4492 39.4051 37.7744 39.405H54.1999V57.8315ZM38.2999 37.655L33.4499 28.412H54.5469L59.3999 37.655H38.2999Z" fill="#4295E4" stroke="#4295E4" stroke-width="0.5"/>
<path d="M32.0002 23.9315C37.3885 23.9315 41.7567 19.5634 41.7567 14.175C41.7567 8.78661 37.3885 4.41849 32.0002 4.41849C26.6118 4.41849 22.2437 8.78661 22.2437 14.175V14.1755C22.2498 19.5612 26.6144 23.9257 32.0002 23.9315ZM32.0002 6.16849C36.422 6.16849 40.0067 9.75311 40.0067 14.175C40.0067 18.5969 36.422 22.1815 32.0002 22.1815C27.5785 22.1815 23.9939 18.5971 23.9937 14.1755C23.9987 9.75561 27.5803 6.17374 32.0002 6.16849Z" fill="#4295E4" stroke="#4295E4" stroke-width="0.5"/>
<path d="M32.8897 16.6115H28.9502C28.4669 16.6115 28.0752 17.0032 28.0752 17.4865C28.0752 17.9697 28.4669 18.3615 28.9502 18.3615H32.8877C34.8799 18.338 36.4759 16.704 36.4524 14.7117C36.4293 12.7526 34.8468 11.17 32.8877 11.147H31.0627L31.6707 10.539C32.0187 10.2037 32.0291 9.64987 31.6938 9.30175C31.3586 8.95375 30.8047 8.94337 30.4566 9.27862C30.4493 9.28562 30.4422 9.29275 30.4351 9.3L28.3351 11.4C27.9933 11.7412 27.9929 12.295 28.3343 12.6367C28.3346 12.637 28.3348 12.6372 28.3351 12.6375L30.4351 14.7375C30.7768 15.0792 31.3308 15.0792 31.6726 14.7375C32.0143 14.3957 32.0143 13.8417 31.6726 13.5L31.0641 12.8915H32.8896C33.9153 12.9084 34.7332 13.7535 34.7163 14.7792C34.6999 15.7812 33.8916 16.5896 32.8896 16.606L32.8897 16.6115Z" fill="#4295E4" stroke="#4295E4" stroke-width="0.5"/>
</svg>
