<svg width="64" height="64" viewBox="0 0 64 64" fill="none" xmlns="http://www.w3.org/2000/svg">
<g clip-path="url(#clip0_21828_1717)">
<path d="M63.207 33.9346C62.5499 32.7235 62.5499 31.2772 63.2068 30.0658C64.7116 27.2906 64.024 23.8333 61.5717 21.8451C60.5013 20.9774 59.9478 19.6411 60.0909 18.2708C60.4193 15.1309 58.4609 12.1999 55.4344 11.3016C54.1134 10.9096 53.0908 9.88681 52.6987 8.56594C51.8003 5.53957 48.8695 3.58046 45.7296 3.90933C44.3585 4.05258 43.0227 3.49908 42.155 2.42871C40.1669 -0.0239049 36.7095 -0.711652 33.9343 0.793217C32.7229 1.44996 31.2768 1.44996 30.0654 0.793217C27.2904 -0.711527 23.8331 -0.0240301 21.8446 2.42846C20.9771 3.49883 19.6397 4.0527 18.2702 3.90908C15.1302 3.58046 12.1994 5.5392 11.301 8.56569C10.909 9.88656 9.88636 10.9093 8.56537 11.3013C5.53888 12.1997 3.58039 15.1305 3.90864 18.2704C4.05189 19.6408 3.49851 20.977 2.42802 21.8448C-0.0242239 23.8329 -0.711971 27.2902 0.792898 30.0655C1.44977 31.2767 1.44977 32.7231 0.792898 33.9343C-0.711971 36.7096 -0.0243489 40.1669 2.42802 42.1551C3.49839 43.0228 4.05189 44.359 3.90876 45.7294C3.58039 48.8693 5.53875 51.8003 8.56537 52.6986C9.88636 53.0906 10.909 54.1134 11.3011 55.4342C12.1995 58.4607 15.1301 60.4197 18.2702 60.0909C19.6416 59.9476 20.9771 60.5011 21.8448 61.5715C23.8328 64.0238 27.2903 64.7115 30.0655 63.2066C31.2769 62.5498 32.723 62.5498 33.9344 63.2066C34.9211 63.7416 35.9938 63.9995 37.0563 63.9995C38.9821 63.9995 40.8737 63.1518 42.1552 61.5715C43.0227 60.5011 44.3604 59.9479 45.7296 60.0909C45.9596 60.1149 46.1881 60.1267 46.4151 60.1267C49.2875 60.1266 51.8662 58.2391 52.6988 55.4341C53.0909 54.1133 54.1134 53.0905 55.4346 52.6984C58.461 51.8 60.4195 48.8691 60.0912 45.7293C59.9479 44.3589 60.5013 43.0227 61.5718 42.1549C64.0241 40.1671 64.7119 36.7098 63.207 33.9346ZM61.009 35.1266C61.9403 36.8438 61.5148 38.9832 59.9972 40.2136C58.2675 41.6159 57.373 43.7753 57.6045 45.99C57.8077 47.9329 56.5958 49.7466 54.7229 50.3025C52.5883 50.9361 50.9356 52.5889 50.302 54.7236C49.7462 56.5962 47.9345 57.8091 45.9895 57.6051C43.7747 57.3737 41.6155 58.2681 40.2131 59.9979C38.9827 61.5155 36.8434 61.9408 35.126 61.0097C34.1471 60.4789 33.0738 60.2136 31.9999 60.2136C30.9263 60.2136 29.8524 60.4791 28.8738 61.0097C27.1565 61.9411 25.0171 61.5155 23.7868 59.998C22.3846 58.2682 20.2254 57.3735 18.0102 57.6052C16.0678 57.8089 14.2537 56.5966 13.6977 54.7238C13.0641 52.589 11.4114 50.9363 9.27674 50.3026C7.404 49.7468 6.192 47.933 6.39513 45.9902C6.62675 43.7755 5.73213 41.6162 4.00251 40.2138C2.48489 38.9836 2.05939 36.8442 2.99064 35.1267C4.05201 33.1692 4.05201 30.832 2.99064 28.8742C2.05939 27.157 2.48489 25.0176 4.00251 23.7873C5.73213 22.3849 6.62663 20.2255 6.39513 18.0108C6.192 16.0679 7.40387 14.2542 9.27674 13.6983C11.4114 13.0647 13.0641 11.4119 13.6977 9.27706C14.2535 7.40444 16.0662 6.19195 18.0102 6.39557C20.2249 6.62707 22.3843 5.73257 23.7866 4.00283C25.0169 2.48521 27.1564 2.05996 28.8737 2.99096C30.8312 4.05245 33.1683 4.05245 35.126 2.99096C36.8433 2.05959 38.9827 2.48521 40.213 4.0027C41.6152 5.73245 43.7734 6.62694 45.9896 6.39544C47.9322 6.1927 49.7462 7.40407 50.302 9.27693C50.9356 11.4117 52.5883 13.0644 54.7229 13.6979C56.5957 14.2538 57.8077 16.0675 57.6045 18.0104C57.3729 20.225 58.2675 22.3844 59.9972 23.7868C61.5148 25.017 61.9403 27.1564 61.009 28.8739C59.9477 30.8316 59.9477 33.169 61.009 35.1266Z" fill="#4295E4"/>
<path d="M43.9516 9.75044C39.2713 7.2342 33.7802 6.25521 28.4904 6.9937C23.0211 7.7572 18.0606 10.2303 14.1452 14.1457C10.4227 17.8682 7.98963 22.57 7.10926 27.7426C6.24826 32.8008 6.92301 37.9276 9.0605 42.5686C9.27138 43.0262 9.72375 43.2959 10.1966 43.2959C10.3716 43.2959 10.5494 43.2591 10.7189 43.1811C11.346 42.8922 11.6201 42.1498 11.3312 41.5227C7.36513 32.9116 9.20638 22.62 15.913 15.9133C22.9584 8.86819 34.0012 7.2392 42.7676 11.9524C43.3756 12.2793 44.1337 12.0514 44.4605 11.4434C44.7875 10.8353 44.5596 10.0773 43.9516 9.75044Z" fill="#4295E4"/>
<path d="M15.9664 48.14L15.9133 48.0869C15.425 47.5988 14.6338 47.5988 14.1454 48.0869C13.6573 48.575 13.6573 49.3665 14.1454 49.8548L14.1986 49.9079C14.4428 50.152 14.7626 50.274 15.0825 50.274C15.4024 50.274 15.7223 50.152 15.9664 49.9079C16.4545 49.4198 16.4545 48.6283 15.9664 48.14Z" fill="#4295E4"/>
<path d="M54.1599 19.8832C53.8282 19.2774 53.0682 19.0554 52.4632 19.3868C51.8576 19.7183 51.6354 20.4779 51.9667 21.0834C56.7827 29.8822 55.1871 40.9864 48.0866 48.087C41.3998 54.7738 31.4869 56.635 22.8327 52.8288C22.2006 52.5509 21.4632 52.8378 21.1852 53.4698C20.9072 54.1017 21.1942 54.8393 21.8261 55.1173C25.0483 56.5345 28.4943 57.2542 31.9762 57.2542C33.4714 57.2542 34.9734 57.1214 36.4673 56.8543C41.5567 55.9439 46.1858 53.5236 49.8546 49.8548C53.7932 45.9162 56.2707 40.9242 57.019 35.4188C57.7428 30.0918 56.7275 24.5745 54.1599 19.8832Z" fill="#4295E4"/>
<path d="M49.8873 14.1782L49.8547 14.1456C49.3664 13.6574 48.5752 13.6574 48.0868 14.1456C47.5987 14.6337 47.5987 15.4252 48.0868 15.9134L48.1195 15.9461C48.3637 16.1902 48.6835 16.3122 49.0034 16.3122C49.3233 16.3122 49.6432 16.1902 49.8873 15.9461C50.3754 15.4579 50.3754 14.6664 49.8873 14.1782Z" fill="#4295E4"/>
<path d="M47.8753 33.2501C47.8753 31.8329 47.028 30.6105 45.8138 30.0608C45.978 29.6556 46.0693 29.2134 46.0693 28.7502C46.0693 26.8203 44.4991 25.2502 42.5693 25.2502H37.1334L37.4903 24.1903C38.054 22.5168 37.9193 20.7306 37.1112 19.1604C36.3029 17.5903 34.9274 16.4428 33.2381 15.9292C32.6017 15.7356 31.9253 16.0745 31.6989 16.6998L29.7856 21.9881C29.2888 23.3609 28.3091 24.5015 27.0268 25.1998L25.5072 26.0273C25.0023 25.5464 24.32 25.2502 23.5693 25.2502H18.1875C16.6367 25.2502 15.375 26.5118 15.375 28.0627V42.9376C15.375 44.4885 16.6367 45.7501 18.1875 45.7501H23.5693C24.4296 45.7502 25.2003 45.3617 25.7167 44.7513L26.2878 44.9753C27.599 45.4896 28.9779 45.7503 30.3866 45.7503H41.0003C42.9301 45.7503 44.5003 44.1802 44.5003 42.2503C44.5003 41.7787 44.406 41.329 44.2361 40.918C45.4245 40.3579 46.2493 39.1489 46.2493 37.7504C46.2493 37.2594 46.1473 36.792 45.9639 36.3675C47.0971 35.7872 47.8753 34.6083 47.8753 33.2501ZM23.882 42.9376C23.882 43.1098 23.7418 43.2501 23.5695 43.2501H18.1876C18.0152 43.2501 17.8751 43.11 17.8751 42.9376V28.0627C17.8751 27.8904 18.0152 27.7502 18.1876 27.7502H23.5695C23.6965 27.7502 23.8055 27.8265 23.8543 27.9355C23.8611 27.9684 23.8696 28.001 23.8791 28.0335C23.88 28.0433 23.882 28.0527 23.882 28.0627V42.9376ZM44.3753 34.2504H38.7502C38.0599 34.2504 37.5002 34.81 37.5002 35.5004C37.5002 36.1907 38.0599 36.7504 38.7502 36.7504H42.7491C43.3005 36.7504 43.7491 37.199 43.7491 37.7504C43.7491 38.3017 43.3005 38.7504 42.7491 38.7504H38.7502C38.0599 38.7504 37.5002 39.31 37.5002 40.0004C37.5002 40.6907 38.0599 41.2504 38.7502 41.2504H41.0002C41.5515 41.2504 42.0001 41.699 42.0001 42.2503C42.0001 42.8017 41.5515 43.2503 41.0002 43.2503H40.0752H30.3864C29.2916 43.2503 28.2197 43.0476 27.2006 42.648L26.3818 42.3268V28.3977L28.2225 27.3954C30.0417 26.4048 31.4318 24.7865 32.1366 22.8387L33.5863 18.8319C34.1313 19.2002 34.5782 19.7017 34.8885 20.3047C35.3847 21.2684 35.4673 22.3649 35.1213 23.3923L34.2089 26.1012C34.0804 26.4827 34.1436 26.9025 34.3783 27.2294C34.6131 27.5563 34.9909 27.7502 35.3934 27.7502H42.5693C43.1206 27.7502 43.5693 28.1988 43.5693 28.7502C43.5693 29.3015 43.1206 29.7501 42.5693 29.7501H38.7502C38.0599 29.7501 37.5002 30.3098 37.5002 31.0001C37.5002 31.6905 38.0599 32.2501 38.7502 32.2501L44.3753 32.2503C44.9266 32.2503 45.3753 32.6989 45.3753 33.2503C45.3753 33.8016 44.9266 34.2504 44.3753 34.2504Z" fill="#4295E4"/>
</g>
<defs>
<clipPath id="clip0_21828_1717">
<rect width="64" height="64" fill="white"/>
</clipPath>
</defs>
</svg>
