<?xml version="1.0" standalone="no"?>
<!DOCTYPE svg PUBLIC "-//W3C//DTD SVG 20010904//EN"
 "http://www.w3.org/TR/2001/REC-SVG-20010904/DTD/svg10.dtd">
<svg version="1.0" xmlns="http://www.w3.org/2000/svg"
 width="700.000000pt" height="700.000000pt" viewBox="0 0 700.000000 700.000000"
 preserveAspectRatio="xMidYMid meet">
<metadata>
Created by potrace 1.14, written by Peter Selinger 2001-2017
</metadata>
<g transform="translate(0.000000,700.000000) scale(0.100000,-0.100000)"
fill="#000000" stroke="none">
<path d="M3682 6984 c-83 -42 -110 -159 -110 -474 0 -144 4 -199 22 -322 3
-17 0 -28 -7 -29 -7 0 -44 -2 -83 -3 -57 -2 -79 -7 -107 -26 -95 -65 -85 -211
17 -259 36 -17 64 -19 231 -19 l190 1 72 -42 c64 -38 72 -45 63 -62 -6 -10
-14 -19 -18 -20 -4 -1 -180 -2 -392 -3 -364 -1 -387 -2 -419 -21 -108 -63
-106 -212 4 -265 38 -19 62 -20 333 -20 l292 0 -25 -40 c-14 -22 -25 -44 -25
-49 0 -33 -29 -35 -418 -36 -429 -1 -426 0 -474 -67 -17 -24 -23 -47 -23 -85
0 -56 18 -90 69 -127 26 -20 42 -21 337 -24 170 -2 309 -5 309 -7 0 -4 -59
-107 -66 -114 -2 -2 -183 -4 -401 -5 -383 -1 -399 -2 -433 -22 -48 -28 -79
-86 -75 -140 4 -50 25 -86 69 -117 30 -21 38 -22 336 -24 168 -1 310 -2 317
-2 15 -1 -55 -121 -71 -122 -6 0 -189 -1 -406 -2 -391 -2 -395 -2 -431 -25
-97 -60 -90 -209 13 -260 33 -17 65 -19 352 -18 174 1 316 -2 316 -6 0 -6 -68
-129 -76 -137 -2 -2 -383 -3 -846 -3 -588 1 -858 -2 -893 -10 -27 -6 -80 -23
-116 -38 -95 -40 -181 -33 -307 25 -149 69 -252 211 -277 383 -16 108 -32 143
-80 172 -100 62 -227 -10 -229 -128 -2 -204 81 -407 231 -559 61 -63 182 -148
245 -172 l36 -14 -34 -47 c-70 -97 -135 -266 -150 -390 -9 -70 -9 -2667 -1
-2736 20 -155 121 -308 261 -393 99 -59 157 -74 307 -77 307 -6 467 76 519
266 8 27 14 127 15 255 2 125 8 228 15 255 52 192 212 346 401 385 93 20 1868
18 1954 -2 132 -30 250 -112 325 -226 61 -93 80 -167 86 -327 5 -149 20 -223
60 -302 75 -149 227 -267 384 -297 72 -13 311 -6 375 12 132 37 206 94 253
194 l27 58 3 2138 2 2137 380 0 c209 0 382 0 385 1 234 41 408 190 471 404 15
52 17 106 18 420 0 198 -3 383 -6 410 -18 151 -127 280 -313 373 -110 54 -165
72 -505 163 -162 43 -329 88 -370 99 -41 11 -241 65 -445 119 -203 55 -422
118 -485 141 -63 22 -169 61 -235 85 -66 23 -158 57 -205 75 -47 17 -101 36
-120 42 -19 5 -39 13 -45 16 -5 4 -14 7 -20 8 -5 1 -59 21 -120 44 -130 49
-187 57 -233 34z m318 -381 c52 -19 129 -48 170 -64 457 -175 506 -190 1260
-390 85 -23 218 -58 295 -79 261 -70 380 -102 395 -105 88 -19 264 -102 308
-145 17 -18 36 -47 41 -64 4 -17 7 -183 5 -370 l-3 -339 -26 -53 c-15 -30 -43
-67 -63 -84 -72 -59 -62 -58 -742 -59 l-622 0 -38 -24 c-96 -64 -92 -202 8
-260 27 -16 51 -19 138 -18 l104 0 0 -2099 c0 -1872 -2 -2100 -15 -2114 -22
-21 -71 -29 -189 -29 -112 0 -152 12 -210 63 -59 52 -77 107 -82 244 -5 166
-11 208 -50 324 -51 154 -188 323 -337 416 -87 54 -209 101 -304 117 -75 12
-1855 16 -1976 5 -297 -30 -578 -256 -678 -549 -41 -119 -41 -122 -46 -347 -2
-113 -6 -215 -8 -227 -7 -31 -67 -45 -195 -46 -94 0 -110 3 -156 26 -55 28
-101 79 -125 137 -12 30 -14 241 -13 1375 l0 1340 22 76 c24 88 48 132 109
207 45 57 99 104 146 128 l27 15 1 -236 c1 -129 2 -238 3 -242 1 -5 6 -30 11
-58 12 -72 12 -70 31 -132 23 -72 94 -211 135 -266 96 -126 253 -252 386 -310
153 -68 257 -85 488 -82 188 3 290 24 424 86 122 57 185 101 281 198 137 137
218 288 260 480 16 73 19 132 20 419 0 330 1 334 24 376 19 35 916 1603 966
1691 35 60 100 175 121 211 29 52 32 110 8 157 -19 37 -64 71 -174 132 -26 15
-68 40 -93 55 -26 16 -66 39 -89 51 -47 25 -48 27 -70 124 -16 72 -25 280 -16
348 4 30 9 37 22 32 9 -4 59 -22 111 -42z m-1124 -2922 c12 -1 12 -511 0 -561
-3 -14 -8 -38 -12 -55 -13 -62 -87 -194 -146 -259 -99 -109 -232 -185 -373
-211 -55 -10 -321 -6 -371 5 -262 62 -445 245 -510 511 -4 13 -8 146 -9 294
-2 219 0 271 11 275 10 4 1359 5 1410 1z"/>
<path d="M5138 5965 c-2 -2 -17 -5 -34 -8 -112 -17 -206 -126 -207 -237 -1
-193 179 -314 355 -238 94 40 154 140 146 243 -8 95 -53 166 -131 206 -34 18
-122 40 -129 34z"/>
</g>
</svg>
